<?xml version="1.0" encoding="UTF-8" standalone="no"?>
<!DOCTYPE svg PUBLIC "-//W3C//DTD SVG 1.1//EN"
 "http://www.w3.org/Graphics/SVG/1.1/DTD/svg11.dtd">
<!-- Generated by graphviz version 2.38.0 (20140413.2041)
 -->
<!-- Title: models_diagram Pages: 1 -->
<svg width="523pt" height="495pt"
 viewBox="0.00 0.00 522.91 495.00" xmlns="http://www.w3.org/2000/svg" xmlns:xlink="http://www.w3.org/1999/xlink">
<g id="graph0" class="graph" transform="scale(1 1) rotate(0) translate(4 491)">
<title>models_diagram</title>
<polygon fill="white" stroke="none" points="-4,4 -4,-491 518.914,-491 518.914,4 -4,4"/>
<!-- _diagram_info -->
<g id="node1" class="node"><title>_diagram_info</title>
<text text-anchor="start" x="8" y="-437.6" font-family="Times,serif" font-size="13.00">Models diagram</text>
<text text-anchor="start" x="8" y="-424.6" font-family="Times,serif" font-size="13.00">Date: May 16 2015 &#45; 15:18</text>
<text text-anchor="start" x="8" y="-411.6" font-family="Times,serif" font-size="13.00">Migration version: 20150510163912</text>
<text text-anchor="start" x="8" y="-398.6" font-family="Times,serif" font-size="13.00">Generated by RailRoady 1.3.0</text>
<text text-anchor="start" x="8" y="-385.6" font-family="Times,serif" font-size="13.00">http://railroady.prestonlee.com</text>
</g>
<!-- Car -->
<g id="node2" class="node"><title>Car</title>
<path fill="none" stroke="black" d="M237.182,-372.5C237.182,-372.5 346.193,-372.5 346.193,-372.5 352.193,-372.5 358.193,-378.5 358.193,-384.5 358.193,-384.5 358.193,-446.5 358.193,-446.5 358.193,-452.5 352.193,-458.5 346.193,-458.5 346.193,-458.5 237.182,-458.5 237.182,-458.5 231.182,-458.5 225.182,-452.5 225.182,-446.5 225.182,-446.5 225.182,-384.5 225.182,-384.5 225.182,-378.5 231.182,-372.5 237.182,-372.5"/>
<text text-anchor="middle" x="291.688" y="-443.3" font-family="Times,serif" font-size="14.00">Car</text>
<polyline fill="none" stroke="black" points="225.182,-436.5 358.193,-436.5 "/>
<text text-anchor="start" x="233.182" y="-421.3" font-family="Times,serif" font-size="14.00">id :integer</text>
<text text-anchor="start" x="233.182" y="-407.3" font-family="Times,serif" font-size="14.00">license_plate :string</text>
<text text-anchor="start" x="233.182" y="-393.3" font-family="Times,serif" font-size="14.00">created_at :datetime</text>
<text text-anchor="start" x="233.182" y="-379.3" font-family="Times,serif" font-size="14.00">updated_at :datetime</text>
</g>
<!-- Parking -->
<g id="node3" class="node"><title>Parking</title>
<path fill="none" stroke="black" d="M296.182,-193.5C296.182,-193.5 405.193,-193.5 405.193,-193.5 411.193,-193.5 417.193,-199.5 417.193,-205.5 417.193,-205.5 417.193,-295.5 417.193,-295.5 417.193,-301.5 411.193,-307.5 405.193,-307.5 405.193,-307.5 296.182,-307.5 296.182,-307.5 290.182,-307.5 284.182,-301.5 284.182,-295.5 284.182,-295.5 284.182,-205.5 284.182,-205.5 284.182,-199.5 290.182,-193.5 296.182,-193.5"/>
<text text-anchor="middle" x="350.688" y="-292.3" font-family="Times,serif" font-size="14.00">Parking</text>
<polyline fill="none" stroke="black" points="284.182,-285.5 417.193,-285.5 "/>
<text text-anchor="start" x="292.182" y="-270.3" font-family="Times,serif" font-size="14.00">id :integer</text>
<text text-anchor="start" x="292.182" y="-256.3" font-family="Times,serif" font-size="14.00">expires_at :datetime</text>
<text text-anchor="start" x="292.182" y="-242.3" font-family="Times,serif" font-size="14.00">status :string</text>
<text text-anchor="start" x="292.182" y="-228.3" font-family="Times,serif" font-size="14.00">car_id :integer</text>
<text text-anchor="start" x="292.182" y="-214.3" font-family="Times,serif" font-size="14.00">created_at :datetime</text>
<text text-anchor="start" x="292.182" y="-200.3" font-family="Times,serif" font-size="14.00">updated_at :datetime</text>
</g>
<!-- Car&#45;&gt;Parking -->
<g id="edge1" class="edge"><title>Car&#45;&gt;Parking</title>
<path fill="none" stroke="#0bc043" d="M309.775,-364.531C315.181,-349.596 321.192,-332.989 326.905,-317.205"/>
<ellipse fill="none" stroke="#0bc043" cx="308.397" cy="-368.338" rx="4.00001" ry="4.00001"/>
<polygon fill="#0bc043" stroke="#0bc043" points="327.012,-316.908 334.647,-309.037 328.714,-312.207 330.416,-307.505 330.416,-307.505 330.416,-307.505 328.714,-312.207 326.185,-305.974 327.012,-316.908 327.012,-316.908"/>
</g>
<!-- Payment -->
<g id="node4" class="node"><title>Payment</title>
<path fill="none" stroke="black" d="M343.182,-0.5C343.182,-0.5 452.193,-0.5 452.193,-0.5 458.193,-0.5 464.193,-6.5 464.193,-12.5 464.193,-12.5 464.193,-144.5 464.193,-144.5 464.193,-150.5 458.193,-156.5 452.193,-156.5 452.193,-156.5 343.182,-156.5 343.182,-156.5 337.182,-156.5 331.182,-150.5 331.182,-144.5 331.182,-144.5 331.182,-12.5 331.182,-12.5 331.182,-6.5 337.182,-0.5 343.182,-0.5"/>
<text text-anchor="middle" x="397.688" y="-141.3" font-family="Times,serif" font-size="14.00">Payment</text>
<polyline fill="none" stroke="black" points="331.182,-134.5 464.193,-134.5 "/>
<text text-anchor="start" x="339.182" y="-119.3" font-family="Times,serif" font-size="14.00">id :integer</text>
<text text-anchor="start" x="339.182" y="-105.3" font-family="Times,serif" font-size="14.00">type :string</text>
<text text-anchor="start" x="339.182" y="-91.3" font-family="Times,serif" font-size="14.00">data :string</text>
<text text-anchor="start" x="339.182" y="-77.3" font-family="Times,serif" font-size="14.00">parking_id :integer</text>
<text text-anchor="start" x="339.182" y="-63.3" font-family="Times,serif" font-size="14.00">status :string</text>
<text text-anchor="start" x="339.182" y="-49.3" font-family="Times,serif" font-size="14.00">price :float</text>
<text text-anchor="start" x="339.182" y="-35.3" font-family="Times,serif" font-size="14.00">units :integer</text>
<text text-anchor="start" x="339.182" y="-21.3" font-family="Times,serif" font-size="14.00">created_at :datetime</text>
<text text-anchor="start" x="339.182" y="-7.3" font-family="Times,serif" font-size="14.00">updated_at :datetime</text>
</g>
<!-- Parking&#45;&gt;Payment -->
<g id="edge2" class="edge"><title>Parking&#45;&gt;Payment</title>
<path fill="none" stroke="#8c80ed" d="M368.379,-185.512C370.096,-179.3 371.858,-172.928 373.623,-166.541"/>
<ellipse fill="none" stroke="#8c80ed" cx="367.273" cy="-189.509" rx="4.00001" ry="4.00001"/>
<polygon fill="#8c80ed" stroke="#8c80ed" points="373.731,-166.151 380.733,-157.712 375.064,-161.332 376.396,-156.513 376.396,-156.513 376.396,-156.513 375.064,-161.332 372.059,-155.313 373.731,-166.151 373.731,-166.151"/>
</g>
<!-- Zone -->
<g id="node5" class="node"><title>Zone</title>
<path fill="none" stroke="black" d="M388.462,-344.5C388.462,-344.5 502.914,-344.5 502.914,-344.5 508.914,-344.5 514.914,-350.5 514.914,-356.5 514.914,-356.5 514.914,-474.5 514.914,-474.5 514.914,-480.5 508.914,-486.5 502.914,-486.5 502.914,-486.5 388.462,-486.5 388.462,-486.5 382.462,-486.5 376.462,-480.5 376.462,-474.5 376.462,-474.5 376.462,-356.5 376.462,-356.5 376.462,-350.5 382.462,-344.5 388.462,-344.5"/>
<text text-anchor="middle" x="445.688" y="-471.3" font-family="Times,serif" font-size="14.00">Zone</text>
<polyline fill="none" stroke="black" points="376.462,-464.5 514.914,-464.5 "/>
<text text-anchor="start" x="384.462" y="-449.3" font-family="Times,serif" font-size="14.00">id :integer</text>
<text text-anchor="start" x="384.462" y="-435.3" font-family="Times,serif" font-size="14.00">zone :text</text>
<text text-anchor="start" x="384.462" y="-421.3" font-family="Times,serif" font-size="14.00">zone_number :integer</text>
<text text-anchor="start" x="384.462" y="-407.3" font-family="Times,serif" font-size="14.00">unit_price :float</text>
<text text-anchor="start" x="384.462" y="-393.3" font-family="Times,serif" font-size="14.00">unit_time :integer</text>
<text text-anchor="start" x="384.462" y="-379.3" font-family="Times,serif" font-size="14.00">payment_id :integer</text>
<text text-anchor="start" x="384.462" y="-365.3" font-family="Times,serif" font-size="14.00">created_at :datetime</text>
<text text-anchor="start" x="384.462" y="-351.3" font-family="Times,serif" font-size="14.00">updated_at :datetime</text>
</g>
<!-- Zone&#45;&gt;Parking -->
<g id="edge3" class="edge"><title>Zone&#45;&gt;Parking</title>
<path fill="none" stroke="#3121cb" d="M400.814,-337.506C396.704,-330.453 392.567,-323.356 388.528,-316.426"/>
<ellipse fill="none" stroke="#3121cb" cx="402.834" cy="-340.971" rx="4.00002" ry="4.00002"/>
<polygon fill="#3121cb" stroke="#3121cb" points="388.508,-316.392 387.361,-305.486 385.991,-312.072 383.473,-307.752 383.473,-307.752 383.473,-307.752 385.991,-312.072 379.585,-310.018 388.508,-316.392 388.508,-316.392"/>
</g>
<!-- Zone&#45;&gt;Payment -->
<g id="edge4" class="edge"><title>Zone&#45;&gt;Payment</title>
<path fill="none" stroke="#8b36df" d="M442.121,-336.205C439.392,-293.636 434.684,-240.189 426.688,-193 425.231,-184.404 423.449,-175.505 421.492,-166.644"/>
<ellipse fill="none" stroke="#8b36df" cx="442.376" cy="-340.303" rx="4" ry="4"/>
<polygon fill="#8b36df" stroke="#8b36df" points="421.442,-166.424 423.602,-155.673 420.328,-161.55 419.215,-156.675 419.215,-156.675 419.215,-156.675 420.328,-161.55 414.828,-157.677 421.442,-166.424 421.442,-166.424"/>
</g>
</g>
</svg>
