<?xml version="1.0" encoding="UTF-8" standalone="no"?>
<!DOCTYPE svg PUBLIC "-//W3C//DTD SVG 1.1//EN"
 "http://www.w3.org/Graphics/SVG/1.1/DTD/svg11.dtd">
<!-- Generated by graphviz version 2.38.0 (20140413.2041)
 -->
<!-- Title: models_diagram Pages: 1 -->
<svg width="409pt" height="225pt"
 viewBox="0.00 0.00 408.74 225.00" xmlns="http://www.w3.org/2000/svg" xmlns:xlink="http://www.w3.org/1999/xlink">
<g id="graph0" class="graph" transform="scale(1 1) rotate(0) translate(4 221)">
<title>models_diagram</title>
<polygon fill="white" stroke="none" points="-4,4 -4,-221 404.742,-221 404.742,4 -4,4"/>
<!-- _diagram_info -->
<g id="node1" class="node"><title>_diagram_info</title>
<text text-anchor="start" x="8" y="-202.6" font-family="Times,serif" font-size="13.00">Models diagram</text>
<text text-anchor="start" x="8" y="-189.6" font-family="Times,serif" font-size="13.00">Date: May 24 2015 &#45; 12:36</text>
<text text-anchor="start" x="8" y="-176.6" font-family="Times,serif" font-size="13.00">Migration version: 20150524152839</text>
<text text-anchor="start" x="8" y="-163.6" font-family="Times,serif" font-size="13.00">Generated by RailRoady 1.3.0</text>
<text text-anchor="start" x="8" y="-150.6" font-family="Times,serif" font-size="13.00">http://railroady.prestonlee.com</text>
</g>
<!-- Car -->
<g id="node2" class="node"><title>Car</title>
<ellipse fill="none" stroke="black" cx="252.688" cy="-180.5" rx="27" ry="18"/>
<text text-anchor="middle" x="252.688" y="-176.3" font-family="Times,serif" font-size="14.00">Car</text>
</g>
<!-- Device -->
<g id="node3" class="node"><title>Device</title>
<ellipse fill="none" stroke="black" cx="256.688" cy="-18" rx="35.2956" ry="18"/>
<text text-anchor="middle" x="256.688" y="-13.8" font-family="Times,serif" font-size="14.00">Device</text>
</g>
<!-- Car&#45;&gt;Device -->
<g id="edge2" class="edge"><title>Car&#45;&gt;Device</title>
<path fill="none" stroke="#a4d018" d="M253.321,-154.079C254.054,-124.675 255.256,-76.4552 256.008,-46.2837"/>
<ellipse fill="none" stroke="#a4d018" cx="253.216" cy="-158.325" rx="4" ry="4"/>
<polygon fill="#a4d018" stroke="#a4d018" points="256.014,-46.0497 260.761,-36.165 256.138,-41.0513 256.263,-36.0528 256.263,-36.0528 256.263,-36.0528 256.138,-41.0513 251.764,-35.9407 256.014,-46.0497 256.014,-46.0497"/>
</g>
<!-- Parking -->
<g id="node4" class="node"><title>Parking</title>
<ellipse fill="none" stroke="black" cx="303.688" cy="-90" rx="37.7352" ry="18"/>
<text text-anchor="middle" x="303.688" y="-85.8" font-family="Times,serif" font-size="14.00">Parking</text>
</g>
<!-- Car&#45;&gt;Parking -->
<g id="edge1" class="edge"><title>Car&#45;&gt;Parking</title>
<path fill="none" stroke="#0ab9cf" d="M266.153,-156.134C273.195,-143.914 281.825,-128.938 289.034,-116.428"/>
<ellipse fill="none" stroke="#0ab9cf" cx="264.039" cy="-159.802" rx="4.00002" ry="4.00002"/>
<polygon fill="#0ab9cf" stroke="#0ab9cf" points="289.227,-116.093 298.119,-109.676 291.724,-111.761 294.22,-107.429 294.22,-107.429 294.22,-107.429 291.724,-111.761 290.321,-105.182 289.227,-116.093 289.227,-116.093"/>
</g>
<!-- Parking&#45;&gt;Device -->
<g id="edge4" class="edge"><title>Parking&#45;&gt;Device</title>
<path fill="none" stroke="#b9f356" d="M288.286,-66.0612C283.515,-58.9552 278.236,-51.0934 273.382,-43.8633"/>
<ellipse fill="none" stroke="#b9f356" cx="290.557" cy="-69.4438" rx="4.00002" ry="4.00002"/>
<polygon fill="#b9f356" stroke="#b9f356" points="273.104,-43.4495 271.266,-32.6388 270.317,-39.2984 267.53,-35.1473 267.53,-35.1473 267.53,-35.1473 270.317,-39.2984 263.794,-37.6558 273.104,-43.4495 273.104,-43.4495"/>
</g>
<!-- Payment -->
<g id="node5" class="node"><title>Payment</title>
<ellipse fill="none" stroke="black" cx="359.688" cy="-18" rx="41.1093" ry="18"/>
<text text-anchor="middle" x="359.688" y="-13.8" font-family="Times,serif" font-size="14.00">Payment</text>
</g>
<!-- Parking&#45;&gt;Payment -->
<g id="edge3" class="edge"><title>Parking&#45;&gt;Payment</title>
<path fill="none" stroke="#05e0ce" d="M321.806,-66.3523C327.783,-58.8812 334.449,-50.5486 340.503,-42.9813"/>
<ellipse fill="none" stroke="#05e0ce" cx="319.175" cy="-69.6412" rx="4.00002" ry="4.00002"/>
<polygon fill="#05e0ce" stroke="#05e0ce" points="340.523,-42.956 350.284,-37.9585 343.646,-39.0517 346.77,-35.1473 346.77,-35.1473 346.77,-35.1473 343.646,-39.0517 343.256,-32.3362 340.523,-42.956 340.523,-42.956"/>
</g>
<!-- Zone -->
<g id="node6" class="node"><title>Zone</title>
<ellipse fill="none" stroke="black" cx="340.688" cy="-180.5" rx="28.0565" ry="18"/>
<text text-anchor="middle" x="340.688" y="-176.3" font-family="Times,serif" font-size="14.00">Zone</text>
</g>
<!-- Zone&#45;&gt;Parking -->
<g id="edge5" class="edge"><title>Zone&#45;&gt;Parking</title>
<path fill="none" stroke="#342c5c" d="M330.608,-155.391C325.691,-143.628 319.764,-129.452 314.724,-117.398"/>
<ellipse fill="none" stroke="#342c5c" cx="332.185" cy="-159.163" rx="4.00002" ry="4.00002"/>
<polygon fill="#342c5c" stroke="#342c5c" points="314.599,-117.099 314.894,-106.137 312.67,-112.485 310.742,-107.872 310.742,-107.872 310.742,-107.872 312.67,-112.485 306.59,-109.608 314.599,-117.099 314.599,-117.099"/>
</g>
<!-- Zone&#45;&gt;Payment -->
<g id="edge6" class="edge"><title>Zone&#45;&gt;Payment</title>
<path fill="none" stroke="#6fe3be" d="M344.429,-154.455C346.416,-140.749 348.826,-123.458 350.688,-108 353.179,-87.3148 355.531,-63.8679 357.205,-46.2346"/>
<ellipse fill="none" stroke="#6fe3be" cx="343.834" cy="-158.519" rx="4.00001" ry="4.00001"/>
<polygon fill="#6fe3be" stroke="#6fe3be" points="357.223,-46.0398 362.636,-36.5027 357.689,-41.0615 358.155,-36.0833 358.155,-36.0833 358.155,-36.0833 357.689,-41.0615 353.675,-35.6639 357.223,-46.0398 357.223,-46.0398"/>
</g>
</g>
</svg>
