<?xml version="1.0" encoding="UTF-8" standalone="no"?>
<!DOCTYPE svg PUBLIC "-//W3C//DTD SVG 1.1//EN"
 "http://www.w3.org/Graphics/SVG/1.1/DTD/svg11.dtd">
<!-- Generated by graphviz version 2.38.0 (20140413.2041)
 -->
<!-- Title: models_diagram Pages: 1 -->
<svg width="362pt" height="225pt"
 viewBox="0.00 0.00 361.97 225.00" xmlns="http://www.w3.org/2000/svg" xmlns:xlink="http://www.w3.org/1999/xlink">
<g id="graph0" class="graph" transform="scale(1 1) rotate(0) translate(4 221)">
<title>models_diagram</title>
<polygon fill="white" stroke="none" points="-4,4 -4,-221 357.965,-221 357.965,4 -4,4"/>
<!-- _diagram_info -->
<g id="node1" class="node"><title>_diagram_info</title>
<text text-anchor="start" x="8" y="-202.6" font-family="Times,serif" font-size="13.00">Models diagram</text>
<text text-anchor="start" x="8" y="-189.6" font-family="Times,serif" font-size="13.00">Date: May 16 2015 &#45; 15:19</text>
<text text-anchor="start" x="8" y="-176.6" font-family="Times,serif" font-size="13.00">Migration version: 20150510163912</text>
<text text-anchor="start" x="8" y="-163.6" font-family="Times,serif" font-size="13.00">Generated by RailRoady 1.3.0</text>
<text text-anchor="start" x="8" y="-150.6" font-family="Times,serif" font-size="13.00">http://railroady.prestonlee.com</text>
</g>
<!-- Car -->
<g id="node2" class="node"><title>Car</title>
<ellipse fill="none" stroke="black" cx="252.688" cy="-180.5" rx="27" ry="18"/>
<text text-anchor="middle" x="252.688" y="-176.3" font-family="Times,serif" font-size="14.00">Car</text>
</g>
<!-- Parking -->
<g id="node3" class="node"><title>Parking</title>
<ellipse fill="none" stroke="black" cx="259.688" cy="-90" rx="37.7352" ry="18"/>
<text text-anchor="middle" x="259.688" y="-85.8" font-family="Times,serif" font-size="14.00">Parking</text>
</g>
<!-- Car&#45;&gt;Parking -->
<g id="edge1" class="edge"><title>Car&#45;&gt;Parking</title>
<path fill="none" stroke="#47b83d" d="M254.69,-154.189C255.577,-142.971 256.623,-129.752 257.528,-118.311"/>
<ellipse fill="none" stroke="#47b83d" cx="254.353" cy="-158.449" rx="4" ry="4"/>
<polygon fill="#47b83d" stroke="#47b83d" points="257.554,-117.98 262.828,-108.366 257.948,-112.996 258.342,-108.011 258.342,-108.011 258.342,-108.011 257.948,-112.996 253.856,-107.656 257.554,-117.98 257.554,-117.98"/>
</g>
<!-- Payment -->
<g id="node4" class="node"><title>Payment</title>
<ellipse fill="none" stroke="black" cx="292.688" cy="-18" rx="41.1093" ry="18"/>
<text text-anchor="middle" x="292.688" y="-13.8" font-family="Times,serif" font-size="14.00">Payment</text>
</g>
<!-- Parking&#45;&gt;Payment -->
<g id="edge2" class="edge"><title>Parking&#45;&gt;Payment</title>
<path fill="none" stroke="#15fba9" d="M271.137,-64.7144C274.16,-58.3016 277.433,-51.3577 280.494,-44.8648"/>
<ellipse fill="none" stroke="#15fba9" cx="269.382" cy="-68.4368" rx="4.00002" ry="4.00002"/>
<polygon fill="#15fba9" stroke="#15fba9" points="280.509,-44.8343 288.843,-37.7079 282.641,-40.3116 284.773,-35.789 284.773,-35.789 284.773,-35.789 282.641,-40.3116 280.703,-33.8701 280.509,-44.8343 280.509,-44.8343"/>
</g>
<!-- Zone -->
<g id="node5" class="node"><title>Zone</title>
<ellipse fill="none" stroke="black" cx="325.688" cy="-180.5" rx="28.0565" ry="18"/>
<text text-anchor="middle" x="325.688" y="-176.3" font-family="Times,serif" font-size="14.00">Zone</text>
</g>
<!-- Zone&#45;&gt;Parking -->
<g id="edge3" class="edge"><title>Zone&#45;&gt;Parking</title>
<path fill="none" stroke="#e0da61" d="M308.855,-156.928C299.374,-144.215 287.528,-128.332 277.84,-115.341"/>
<ellipse fill="none" stroke="#e0da61" cx="311.497" cy="-160.471" rx="4.00002" ry="4.00002"/>
<polygon fill="#e0da61" stroke="#e0da61" points="277.81,-115.3 275.439,-104.594 274.821,-111.292 271.832,-107.284 271.832,-107.284 271.832,-107.284 274.821,-111.292 268.224,-109.974 277.81,-115.3 277.81,-115.3"/>
</g>
<!-- Zone&#45;&gt;Payment -->
<g id="edge4" class="edge"><title>Zone&#45;&gt;Payment</title>
<path fill="none" stroke="#60320d" d="M321.822,-154.17C318.34,-132.312 312.836,-99.9423 306.688,-72 304.818,-63.5041 302.499,-54.3184 300.289,-46.0185"/>
<ellipse fill="none" stroke="#60320d" cx="322.477" cy="-158.333" rx="4.00001" ry="4.00001"/>
<polygon fill="#60320d" stroke="#60320d" points="300.216,-45.7472 301.934,-34.9168 298.904,-40.9224 297.591,-36.0977 297.591,-36.0977 297.591,-36.0977 298.904,-40.9224 293.249,-37.2786 300.216,-45.7472 300.216,-45.7472"/>
</g>
</g>
</svg>
