<?xml version="1.0" encoding="UTF-8" standalone="no"?>
<!DOCTYPE svg PUBLIC "-//W3C//DTD SVG 1.1//EN"
 "http://www.w3.org/Graphics/SVG/1.1/DTD/svg11.dtd">
<!-- Generated by graphviz version 2.38.0 (20140413.2041)
 -->
<!-- Title: models_diagram Pages: 1 -->
<svg width="541pt" height="509pt"
 viewBox="0.00 0.00 541.19 509.00" xmlns="http://www.w3.org/2000/svg" xmlns:xlink="http://www.w3.org/1999/xlink">
<g id="graph0" class="graph" transform="scale(1 1) rotate(0) translate(4 505)">
<title>models_diagram</title>
<polygon fill="white" stroke="none" points="-4,4 -4,-505 537.193,-505 537.193,4 -4,4"/>
<!-- _diagram_info -->
<g id="node1" class="node"><title>_diagram_info</title>
<text text-anchor="start" x="8" y="-458.6" font-family="Times,serif" font-size="13.00">Models diagram</text>
<text text-anchor="start" x="8" y="-445.6" font-family="Times,serif" font-size="13.00">Date: May 24 2015 &#45; 12:51</text>
<text text-anchor="start" x="8" y="-432.6" font-family="Times,serif" font-size="13.00">Migration version: 20150524152839</text>
<text text-anchor="start" x="8" y="-419.6" font-family="Times,serif" font-size="13.00">Generated by RailRoady 1.3.0</text>
<text text-anchor="start" x="8" y="-406.6" font-family="Times,serif" font-size="13.00">http://railroady.prestonlee.com</text>
</g>
<!-- Car -->
<g id="node2" class="node"><title>Car</title>
<path fill="none" stroke="black" d="M237.182,-393.5C237.182,-393.5 346.193,-393.5 346.193,-393.5 352.193,-393.5 358.193,-399.5 358.193,-405.5 358.193,-405.5 358.193,-467.5 358.193,-467.5 358.193,-473.5 352.193,-479.5 346.193,-479.5 346.193,-479.5 237.182,-479.5 237.182,-479.5 231.182,-479.5 225.182,-473.5 225.182,-467.5 225.182,-467.5 225.182,-405.5 225.182,-405.5 225.182,-399.5 231.182,-393.5 237.182,-393.5"/>
<text text-anchor="middle" x="291.688" y="-464.3" font-family="Times,serif" font-size="14.00">Car</text>
<polyline fill="none" stroke="black" points="225.182,-457.5 358.193,-457.5 "/>
<text text-anchor="start" x="233.182" y="-442.3" font-family="Times,serif" font-size="14.00">id :integer</text>
<text text-anchor="start" x="233.182" y="-428.3" font-family="Times,serif" font-size="14.00">license_plate :string</text>
<text text-anchor="start" x="233.182" y="-414.3" font-family="Times,serif" font-size="14.00">created_at :datetime</text>
<text text-anchor="start" x="233.182" y="-400.3" font-family="Times,serif" font-size="14.00">updated_at :datetime</text>
</g>
<!-- Device -->
<g id="node3" class="node"><title>Device</title>
<path fill="none" stroke="black" d="M229.11,-14.5C229.11,-14.5 362.265,-14.5 362.265,-14.5 368.265,-14.5 374.265,-20.5 374.265,-26.5 374.265,-26.5 374.265,-130.5 374.265,-130.5 374.265,-136.5 368.265,-142.5 362.265,-142.5 362.265,-142.5 229.11,-142.5 229.11,-142.5 223.11,-142.5 217.11,-136.5 217.11,-130.5 217.11,-130.5 217.11,-26.5 217.11,-26.5 217.11,-20.5 223.11,-14.5 229.11,-14.5"/>
<text text-anchor="middle" x="295.688" y="-127.3" font-family="Times,serif" font-size="14.00">Device</text>
<polyline fill="none" stroke="black" points="217.11,-120.5 374.265,-120.5 "/>
<text text-anchor="start" x="225.11" y="-105.3" font-family="Times,serif" font-size="14.00">id :integer</text>
<text text-anchor="start" x="225.11" y="-91.3" font-family="Times,serif" font-size="14.00">notification_token :string</text>
<text text-anchor="start" x="225.11" y="-77.3" font-family="Times,serif" font-size="14.00">user_agent :string</text>
<text text-anchor="start" x="225.11" y="-63.3" font-family="Times,serif" font-size="14.00">car_id :integer</text>
<text text-anchor="start" x="225.11" y="-49.3" font-family="Times,serif" font-size="14.00">parking_id :integer</text>
<text text-anchor="start" x="225.11" y="-35.3" font-family="Times,serif" font-size="14.00">created_at :datetime</text>
<text text-anchor="start" x="225.11" y="-21.3" font-family="Times,serif" font-size="14.00">updated_at :datetime</text>
</g>
<!-- Car&#45;&gt;Device -->
<g id="edge2" class="edge"><title>Car&#45;&gt;Device</title>
<path fill="none" stroke="#fe6a9d" d="M292.255,-384.971C292.936,-324.392 294.082,-222.38 294.861,-153.062"/>
<ellipse fill="none" stroke="#fe6a9d" cx="292.207" cy="-389.264" rx="4" ry="4"/>
<polygon fill="#fe6a9d" stroke="#fe6a9d" points="294.866,-152.655 299.478,-142.706 294.922,-147.655 294.978,-142.655 294.978,-142.655 294.978,-142.655 294.922,-147.655 290.478,-142.605 294.866,-152.655 294.866,-152.655"/>
</g>
<!-- Parking -->
<g id="node4" class="node"><title>Parking</title>
<path fill="none" stroke="black" d="M320.062,-193.5C320.062,-193.5 435.314,-193.5 435.314,-193.5 441.314,-193.5 447.314,-199.5 447.314,-205.5 447.314,-205.5 447.314,-323.5 447.314,-323.5 447.314,-329.5 441.314,-335.5 435.314,-335.5 435.314,-335.5 320.062,-335.5 320.062,-335.5 314.062,-335.5 308.062,-329.5 308.062,-323.5 308.062,-323.5 308.062,-205.5 308.062,-205.5 308.062,-199.5 314.062,-193.5 320.062,-193.5"/>
<text text-anchor="middle" x="377.688" y="-320.3" font-family="Times,serif" font-size="14.00">Parking</text>
<polyline fill="none" stroke="black" points="308.062,-313.5 447.314,-313.5 "/>
<text text-anchor="start" x="316.062" y="-298.3" font-family="Times,serif" font-size="14.00">id :integer</text>
<text text-anchor="start" x="316.062" y="-284.3" font-family="Times,serif" font-size="14.00">expires_at :datetime</text>
<text text-anchor="start" x="316.062" y="-270.3" font-family="Times,serif" font-size="14.00">status :string</text>
<text text-anchor="start" x="316.062" y="-256.3" font-family="Times,serif" font-size="14.00">parking_units :integer</text>
<text text-anchor="start" x="316.062" y="-242.3" font-family="Times,serif" font-size="14.00">zone_id :integer</text>
<text text-anchor="start" x="316.062" y="-228.3" font-family="Times,serif" font-size="14.00">car_id :integer</text>
<text text-anchor="start" x="316.062" y="-214.3" font-family="Times,serif" font-size="14.00">created_at :datetime</text>
<text text-anchor="start" x="316.062" y="-200.3" font-family="Times,serif" font-size="14.00">updated_at :datetime</text>
</g>
<!-- Car&#45;&gt;Parking -->
<g id="edge1" class="edge"><title>Car&#45;&gt;Parking</title>
<path fill="none" stroke="#8a528e" d="M316.752,-385.954C323.255,-373.099 330.425,-358.926 337.493,-344.954"/>
<ellipse fill="none" stroke="#8a528e" cx="314.752" cy="-389.908" rx="4.00002" ry="4.00002"/>
<polygon fill="#8a528e" stroke="#8a528e" points="337.601,-344.74 346.131,-337.848 339.859,-340.279 342.116,-335.817 342.116,-335.817 342.116,-335.817 339.859,-340.279 338.1,-333.786 337.601,-344.74 337.601,-344.74"/>
</g>
<!-- Parking&#45;&gt;Device -->
<g id="edge4" class="edge"><title>Parking&#45;&gt;Device</title>
<path fill="none" stroke="#24208b" d="M343.121,-185.936C338.109,-174.689 332.965,-163.147 327.999,-152.004"/>
<ellipse fill="none" stroke="#24208b" cx="344.825" cy="-189.759" rx="4.00002" ry="4.00002"/>
<polygon fill="#24208b" stroke="#24208b" points="327.948,-151.888 327.987,-140.922 325.912,-147.321 323.877,-142.754 323.877,-142.754 323.877,-142.754 325.912,-147.321 319.767,-144.586 327.948,-151.888 327.948,-151.888"/>
</g>
<!-- Payment -->
<g id="node5" class="node"><title>Payment</title>
<path fill="none" stroke="black" d="M412.182,-0.5C412.182,-0.5 521.193,-0.5 521.193,-0.5 527.193,-0.5 533.193,-6.5 533.193,-12.5 533.193,-12.5 533.193,-144.5 533.193,-144.5 533.193,-150.5 527.193,-156.5 521.193,-156.5 521.193,-156.5 412.182,-156.5 412.182,-156.5 406.182,-156.5 400.182,-150.5 400.182,-144.5 400.182,-144.5 400.182,-12.5 400.182,-12.5 400.182,-6.5 406.182,-0.5 412.182,-0.5"/>
<text text-anchor="middle" x="466.688" y="-141.3" font-family="Times,serif" font-size="14.00">Payment</text>
<polyline fill="none" stroke="black" points="400.182,-134.5 533.193,-134.5 "/>
<text text-anchor="start" x="408.182" y="-119.3" font-family="Times,serif" font-size="14.00">id :integer</text>
<text text-anchor="start" x="408.182" y="-105.3" font-family="Times,serif" font-size="14.00">type :string</text>
<text text-anchor="start" x="408.182" y="-91.3" font-family="Times,serif" font-size="14.00">data :string</text>
<text text-anchor="start" x="408.182" y="-77.3" font-family="Times,serif" font-size="14.00">parking_id :integer</text>
<text text-anchor="start" x="408.182" y="-63.3" font-family="Times,serif" font-size="14.00">status :string</text>
<text text-anchor="start" x="408.182" y="-49.3" font-family="Times,serif" font-size="14.00">price :float</text>
<text text-anchor="start" x="408.182" y="-35.3" font-family="Times,serif" font-size="14.00">units :integer</text>
<text text-anchor="start" x="408.182" y="-21.3" font-family="Times,serif" font-size="14.00">created_at :datetime</text>
<text text-anchor="start" x="408.182" y="-7.3" font-family="Times,serif" font-size="14.00">updated_at :datetime</text>
</g>
<!-- Parking&#45;&gt;Payment -->
<g id="edge3" class="edge"><title>Parking&#45;&gt;Payment</title>
<path fill="none" stroke="#5099a5" d="M415.149,-186.052C418.372,-179.389 421.645,-172.622 424.899,-165.895"/>
<ellipse fill="none" stroke="#5099a5" cx="413.33" cy="-189.812" rx="4.00002" ry="4.00002"/>
<polygon fill="#5099a5" stroke="#5099a5" points="424.963,-165.762 433.368,-158.719 427.14,-161.261 429.317,-156.76 429.317,-156.76 429.317,-156.76 427.14,-161.261 425.266,-154.8 424.963,-165.762 424.963,-165.762"/>
</g>
<!-- Zone -->
<g id="node6" class="node"><title>Zone</title>
<path fill="none" stroke="black" d="M399.182,-372.5C399.182,-372.5 508.193,-372.5 508.193,-372.5 514.193,-372.5 520.193,-378.5 520.193,-384.5 520.193,-384.5 520.193,-488.5 520.193,-488.5 520.193,-494.5 514.193,-500.5 508.193,-500.5 508.193,-500.5 399.182,-500.5 399.182,-500.5 393.182,-500.5 387.182,-494.5 387.182,-488.5 387.182,-488.5 387.182,-384.5 387.182,-384.5 387.182,-378.5 393.182,-372.5 399.182,-372.5"/>
<text text-anchor="middle" x="453.688" y="-485.3" font-family="Times,serif" font-size="14.00">Zone</text>
<polyline fill="none" stroke="black" points="387.182,-478.5 520.193,-478.5 "/>
<text text-anchor="start" x="395.182" y="-463.3" font-family="Times,serif" font-size="14.00">id :integer</text>
<text text-anchor="start" x="395.182" y="-449.3" font-family="Times,serif" font-size="14.00">name :string</text>
<text text-anchor="start" x="395.182" y="-435.3" font-family="Times,serif" font-size="14.00">number :integer</text>
<text text-anchor="start" x="395.182" y="-421.3" font-family="Times,serif" font-size="14.00">unit_price :float</text>
<text text-anchor="start" x="395.182" y="-407.3" font-family="Times,serif" font-size="14.00">unit_time :integer</text>
<text text-anchor="start" x="395.182" y="-393.3" font-family="Times,serif" font-size="14.00">created_at :datetime</text>
<text text-anchor="start" x="395.182" y="-379.3" font-family="Times,serif" font-size="14.00">updated_at :datetime</text>
</g>
<!-- Zone&#45;&gt;Parking -->
<g id="edge5" class="edge"><title>Zone&#45;&gt;Parking</title>
<path fill="none" stroke="#066960" d="M422.118,-364.883C419.222,-358.405 416.275,-351.813 413.346,-345.262"/>
<ellipse fill="none" stroke="#066960" cx="423.756" cy="-368.547" rx="4.00002" ry="4.00002"/>
<polygon fill="#066960" stroke="#066960" points="413.158,-344.841 413.185,-333.875 411.117,-340.276 409.076,-335.711 409.076,-335.711 409.076,-335.711 411.117,-340.276 404.968,-337.548 413.158,-344.841 413.158,-344.841"/>
</g>
<!-- Zone&#45;&gt;Payment -->
<g id="edge6" class="edge"><title>Zone&#45;&gt;Payment</title>
<path fill="none" stroke="#00e301" d="M456.3,-363.966C458.373,-307.201 461.28,-227.599 463.491,-167.032"/>
<ellipse fill="none" stroke="#00e301" cx="456.143" cy="-368.267" rx="4" ry="4"/>
<polygon fill="#00e301" stroke="#00e301" points="463.503,-166.713 468.365,-156.884 463.685,-161.716 463.868,-156.72 463.868,-156.72 463.868,-156.72 463.685,-161.716 459.371,-156.555 463.503,-166.713 463.503,-166.713"/>
</g>
</g>
</svg>
