<?xml version="1.0" encoding="UTF-8" standalone="no"?>
<!DOCTYPE svg PUBLIC "-//W3C//DTD SVG 1.1//EN"
 "http://www.w3.org/Graphics/SVG/1.1/DTD/svg11.dtd">
<!-- Generated by graphviz version 2.38.0 (20140413.2041)
 -->
<!-- Title: models_diagram Pages: 1 -->
<svg width="517pt" height="481pt"
 viewBox="0.00 0.00 517.19 481.00" xmlns="http://www.w3.org/2000/svg" xmlns:xlink="http://www.w3.org/1999/xlink">
<g id="graph0" class="graph" transform="scale(1 1) rotate(0) translate(4 477)">
<title>models_diagram</title>
<polygon fill="white" stroke="none" points="-4,4 -4,-477 513.193,-477 513.193,4 -4,4"/>
<!-- _diagram_info -->
<g id="node1" class="node"><title>_diagram_info</title>
<text text-anchor="start" x="8" y="-430.6" font-family="Times,serif" font-size="13.00">Models diagram</text>
<text text-anchor="start" x="8" y="-417.6" font-family="Times,serif" font-size="13.00">Date: May 17 2015 &#45; 13:24</text>
<text text-anchor="start" x="8" y="-404.6" font-family="Times,serif" font-size="13.00">Migration version: 20150510163912</text>
<text text-anchor="start" x="8" y="-391.6" font-family="Times,serif" font-size="13.00">Generated by RailRoady 1.3.0</text>
<text text-anchor="start" x="8" y="-378.6" font-family="Times,serif" font-size="13.00">http://railroady.prestonlee.com</text>
</g>
<!-- Car -->
<g id="node2" class="node"><title>Car</title>
<path fill="none" stroke="black" d="M237.182,-365.5C237.182,-365.5 346.193,-365.5 346.193,-365.5 352.193,-365.5 358.193,-371.5 358.193,-377.5 358.193,-377.5 358.193,-439.5 358.193,-439.5 358.193,-445.5 352.193,-451.5 346.193,-451.5 346.193,-451.5 237.182,-451.5 237.182,-451.5 231.182,-451.5 225.182,-445.5 225.182,-439.5 225.182,-439.5 225.182,-377.5 225.182,-377.5 225.182,-371.5 231.182,-365.5 237.182,-365.5"/>
<text text-anchor="middle" x="291.688" y="-436.3" font-family="Times,serif" font-size="14.00">Car</text>
<polyline fill="none" stroke="black" points="225.182,-429.5 358.193,-429.5 "/>
<text text-anchor="start" x="233.182" y="-414.3" font-family="Times,serif" font-size="14.00">id :integer</text>
<text text-anchor="start" x="233.182" y="-400.3" font-family="Times,serif" font-size="14.00">license_plate :string</text>
<text text-anchor="start" x="233.182" y="-386.3" font-family="Times,serif" font-size="14.00">created_at :datetime</text>
<text text-anchor="start" x="233.182" y="-372.3" font-family="Times,serif" font-size="14.00">updated_at :datetime</text>
</g>
<!-- Parking -->
<g id="node3" class="node"><title>Parking</title>
<path fill="none" stroke="black" d="M293.182,-193.5C293.182,-193.5 402.193,-193.5 402.193,-193.5 408.193,-193.5 414.193,-199.5 414.193,-205.5 414.193,-205.5 414.193,-295.5 414.193,-295.5 414.193,-301.5 408.193,-307.5 402.193,-307.5 402.193,-307.5 293.182,-307.5 293.182,-307.5 287.182,-307.5 281.182,-301.5 281.182,-295.5 281.182,-295.5 281.182,-205.5 281.182,-205.5 281.182,-199.5 287.182,-193.5 293.182,-193.5"/>
<text text-anchor="middle" x="347.688" y="-292.3" font-family="Times,serif" font-size="14.00">Parking</text>
<polyline fill="none" stroke="black" points="281.182,-285.5 414.193,-285.5 "/>
<text text-anchor="start" x="289.182" y="-270.3" font-family="Times,serif" font-size="14.00">id :integer</text>
<text text-anchor="start" x="289.182" y="-256.3" font-family="Times,serif" font-size="14.00">expires_at :datetime</text>
<text text-anchor="start" x="289.182" y="-242.3" font-family="Times,serif" font-size="14.00">status :string</text>
<text text-anchor="start" x="289.182" y="-228.3" font-family="Times,serif" font-size="14.00">car_id :integer</text>
<text text-anchor="start" x="289.182" y="-214.3" font-family="Times,serif" font-size="14.00">created_at :datetime</text>
<text text-anchor="start" x="289.182" y="-200.3" font-family="Times,serif" font-size="14.00">updated_at :datetime</text>
</g>
<!-- Car&#45;&gt;Parking -->
<g id="edge1" class="edge"><title>Car&#45;&gt;Parking</title>
<path fill="none" stroke="#50a506" d="M309.597,-357.611C314.206,-344.772 319.236,-330.76 324.085,-317.25"/>
<ellipse fill="none" stroke="#50a506" cx="308.194" cy="-361.519" rx="4.00001" ry="4.00001"/>
<polygon fill="#50a506" stroke="#50a506" points="324.197,-316.938 331.811,-309.046 325.886,-312.232 327.576,-307.526 327.576,-307.526 327.576,-307.526 325.886,-312.232 323.34,-306.006 324.197,-316.938 324.197,-316.938"/>
</g>
<!-- Payment -->
<g id="node4" class="node"><title>Payment</title>
<path fill="none" stroke="black" d="M340.182,-0.5C340.182,-0.5 449.193,-0.5 449.193,-0.5 455.193,-0.5 461.193,-6.5 461.193,-12.5 461.193,-12.5 461.193,-144.5 461.193,-144.5 461.193,-150.5 455.193,-156.5 449.193,-156.5 449.193,-156.5 340.182,-156.5 340.182,-156.5 334.182,-156.5 328.182,-150.5 328.182,-144.5 328.182,-144.5 328.182,-12.5 328.182,-12.5 328.182,-6.5 334.182,-0.5 340.182,-0.5"/>
<text text-anchor="middle" x="394.688" y="-141.3" font-family="Times,serif" font-size="14.00">Payment</text>
<polyline fill="none" stroke="black" points="328.182,-134.5 461.193,-134.5 "/>
<text text-anchor="start" x="336.182" y="-119.3" font-family="Times,serif" font-size="14.00">id :integer</text>
<text text-anchor="start" x="336.182" y="-105.3" font-family="Times,serif" font-size="14.00">type :string</text>
<text text-anchor="start" x="336.182" y="-91.3" font-family="Times,serif" font-size="14.00">data :string</text>
<text text-anchor="start" x="336.182" y="-77.3" font-family="Times,serif" font-size="14.00">parking_id :integer</text>
<text text-anchor="start" x="336.182" y="-63.3" font-family="Times,serif" font-size="14.00">status :string</text>
<text text-anchor="start" x="336.182" y="-49.3" font-family="Times,serif" font-size="14.00">price :float</text>
<text text-anchor="start" x="336.182" y="-35.3" font-family="Times,serif" font-size="14.00">units :integer</text>
<text text-anchor="start" x="336.182" y="-21.3" font-family="Times,serif" font-size="14.00">created_at :datetime</text>
<text text-anchor="start" x="336.182" y="-7.3" font-family="Times,serif" font-size="14.00">updated_at :datetime</text>
</g>
<!-- Parking&#45;&gt;Payment -->
<g id="edge2" class="edge"><title>Parking&#45;&gt;Payment</title>
<path fill="none" stroke="#4958bb" d="M365.379,-185.512C367.096,-179.3 368.858,-172.928 370.623,-166.541"/>
<ellipse fill="none" stroke="#4958bb" cx="364.273" cy="-189.509" rx="4.00001" ry="4.00001"/>
<polygon fill="#4958bb" stroke="#4958bb" points="370.731,-166.151 377.733,-157.712 372.064,-161.332 373.396,-156.513 373.396,-156.513 373.396,-156.513 372.064,-161.332 369.059,-155.313 370.731,-166.151 370.731,-166.151"/>
</g>
<!-- Zone -->
<g id="node5" class="node"><title>Zone</title>
<path fill="none" stroke="black" d="M388.182,-344.5C388.182,-344.5 497.193,-344.5 497.193,-344.5 503.193,-344.5 509.193,-350.5 509.193,-356.5 509.193,-356.5 509.193,-460.5 509.193,-460.5 509.193,-466.5 503.193,-472.5 497.193,-472.5 497.193,-472.5 388.182,-472.5 388.182,-472.5 382.182,-472.5 376.182,-466.5 376.182,-460.5 376.182,-460.5 376.182,-356.5 376.182,-356.5 376.182,-350.5 382.182,-344.5 388.182,-344.5"/>
<text text-anchor="middle" x="442.688" y="-457.3" font-family="Times,serif" font-size="14.00">Zone</text>
<polyline fill="none" stroke="black" points="376.182,-450.5 509.193,-450.5 "/>
<text text-anchor="start" x="384.182" y="-435.3" font-family="Times,serif" font-size="14.00">id :integer</text>
<text text-anchor="start" x="384.182" y="-421.3" font-family="Times,serif" font-size="14.00">name :string</text>
<text text-anchor="start" x="384.182" y="-407.3" font-family="Times,serif" font-size="14.00">number :integer</text>
<text text-anchor="start" x="384.182" y="-393.3" font-family="Times,serif" font-size="14.00">unit_price :float</text>
<text text-anchor="start" x="384.182" y="-379.3" font-family="Times,serif" font-size="14.00">unit_time :integer</text>
<text text-anchor="start" x="384.182" y="-365.3" font-family="Times,serif" font-size="14.00">created_at :datetime</text>
<text text-anchor="start" x="384.182" y="-351.3" font-family="Times,serif" font-size="14.00">updated_at :datetime</text>
</g>
<!-- Zone&#45;&gt;Parking -->
<g id="edge3" class="edge"><title>Zone&#45;&gt;Parking</title>
<path fill="none" stroke="#aab241" d="M400.123,-337.604C395.836,-330.564 391.494,-323.435 387.24,-316.449"/>
<ellipse fill="none" stroke="#aab241" cx="402.241" cy="-341.082" rx="4.00002" ry="4.00002"/>
<polygon fill="#aab241" stroke="#aab241" points="387.111,-316.237 385.753,-305.355 384.51,-311.966 381.909,-307.696 381.909,-307.696 381.909,-307.696 384.51,-311.966 378.066,-310.036 387.111,-316.237 387.111,-316.237"/>
</g>
<!-- Zone&#45;&gt;Payment -->
<g id="edge4" class="edge"><title>Zone&#45;&gt;Payment</title>
<path fill="none" stroke="#bfbbc2" d="M439.261,-336.056C436.531,-294.161 431.776,-240.331 423.688,-193 422.219,-184.406 420.429,-175.508 418.467,-166.648"/>
<ellipse fill="none" stroke="#bfbbc2" cx="439.528" cy="-340.278" rx="4" ry="4"/>
<polygon fill="#bfbbc2" stroke="#bfbbc2" points="418.417,-166.428 420.573,-155.676 417.301,-161.554 416.186,-156.68 416.186,-156.68 416.186,-156.68 417.301,-161.554 411.799,-157.684 418.417,-166.428 418.417,-166.428"/>
</g>
</g>
</svg>
