<?xml version="1.0" encoding="UTF-8" standalone="no"?>
<!DOCTYPE svg PUBLIC "-//W3C//DTD SVG 1.1//EN"
 "http://www.w3.org/Graphics/SVG/1.1/DTD/svg11.dtd">
<!-- Generated by graphviz version 2.38.0 (20140413.2041)
 -->
<!-- Title: models_diagram Pages: 1 -->
<svg width="539pt" height="495pt"
 viewBox="0.00 0.00 539.19 495.00" xmlns="http://www.w3.org/2000/svg" xmlns:xlink="http://www.w3.org/1999/xlink">
<g id="graph0" class="graph" transform="scale(1 1) rotate(0) translate(4 491)">
<title>models_diagram</title>
<polygon fill="white" stroke="none" points="-4,4 -4,-491 535.193,-491 535.193,4 -4,4"/>
<!-- _diagram_info -->
<g id="node1" class="node"><title>_diagram_info</title>
<text text-anchor="start" x="8" y="-444.6" font-family="Times,serif" font-size="13.00">Models diagram</text>
<text text-anchor="start" x="8" y="-431.6" font-family="Times,serif" font-size="13.00">Date: May 24 2015 &#45; 12:42</text>
<text text-anchor="start" x="8" y="-418.6" font-family="Times,serif" font-size="13.00">Migration version: 20150524152839</text>
<text text-anchor="start" x="8" y="-405.6" font-family="Times,serif" font-size="13.00">Generated by RailRoady 1.3.0</text>
<text text-anchor="start" x="8" y="-392.6" font-family="Times,serif" font-size="13.00">http://railroady.prestonlee.com</text>
</g>
<!-- Car -->
<g id="node2" class="node"><title>Car</title>
<path fill="none" stroke="black" d="M237.182,-379.5C237.182,-379.5 346.193,-379.5 346.193,-379.5 352.193,-379.5 358.193,-385.5 358.193,-391.5 358.193,-391.5 358.193,-453.5 358.193,-453.5 358.193,-459.5 352.193,-465.5 346.193,-465.5 346.193,-465.5 237.182,-465.5 237.182,-465.5 231.182,-465.5 225.182,-459.5 225.182,-453.5 225.182,-453.5 225.182,-391.5 225.182,-391.5 225.182,-385.5 231.182,-379.5 237.182,-379.5"/>
<text text-anchor="middle" x="291.688" y="-450.3" font-family="Times,serif" font-size="14.00">Car</text>
<polyline fill="none" stroke="black" points="225.182,-443.5 358.193,-443.5 "/>
<text text-anchor="start" x="233.182" y="-428.3" font-family="Times,serif" font-size="14.00">id :integer</text>
<text text-anchor="start" x="233.182" y="-414.3" font-family="Times,serif" font-size="14.00">license_plate :string</text>
<text text-anchor="start" x="233.182" y="-400.3" font-family="Times,serif" font-size="14.00">created_at :datetime</text>
<text text-anchor="start" x="233.182" y="-386.3" font-family="Times,serif" font-size="14.00">updated_at :datetime</text>
</g>
<!-- Device -->
<g id="node3" class="node"><title>Device</title>
<path fill="none" stroke="black" d="M228.11,-14.5C228.11,-14.5 361.265,-14.5 361.265,-14.5 367.265,-14.5 373.265,-20.5 373.265,-26.5 373.265,-26.5 373.265,-130.5 373.265,-130.5 373.265,-136.5 367.265,-142.5 361.265,-142.5 361.265,-142.5 228.11,-142.5 228.11,-142.5 222.11,-142.5 216.11,-136.5 216.11,-130.5 216.11,-130.5 216.11,-26.5 216.11,-26.5 216.11,-20.5 222.11,-14.5 228.11,-14.5"/>
<text text-anchor="middle" x="294.688" y="-127.3" font-family="Times,serif" font-size="14.00">Device</text>
<polyline fill="none" stroke="black" points="216.11,-120.5 373.265,-120.5 "/>
<text text-anchor="start" x="224.11" y="-105.3" font-family="Times,serif" font-size="14.00">id :integer</text>
<text text-anchor="start" x="224.11" y="-91.3" font-family="Times,serif" font-size="14.00">notification_token :string</text>
<text text-anchor="start" x="224.11" y="-77.3" font-family="Times,serif" font-size="14.00">user_agent :string</text>
<text text-anchor="start" x="224.11" y="-63.3" font-family="Times,serif" font-size="14.00">car_id :integer</text>
<text text-anchor="start" x="224.11" y="-49.3" font-family="Times,serif" font-size="14.00">parking_id :integer</text>
<text text-anchor="start" x="224.11" y="-35.3" font-family="Times,serif" font-size="14.00">created_at :datetime</text>
<text text-anchor="start" x="224.11" y="-21.3" font-family="Times,serif" font-size="14.00">updated_at :datetime</text>
</g>
<!-- Car&#45;&gt;Device -->
<g id="edge2" class="edge"><title>Car&#45;&gt;Device</title>
<path fill="none" stroke="#740d2c" d="M292.131,-370.936C292.637,-313.31 293.467,-218.621 294.044,-152.879"/>
<ellipse fill="none" stroke="#740d2c" cx="292.094" cy="-375.221" rx="4" ry="4"/>
<polygon fill="#740d2c" stroke="#740d2c" points="294.047,-152.586 298.634,-142.626 294.09,-147.586 294.134,-142.586 294.134,-142.586 294.134,-142.586 294.09,-147.586 289.635,-142.547 294.047,-152.586 294.047,-152.586"/>
</g>
<!-- Parking -->
<g id="node4" class="node"><title>Parking</title>
<path fill="none" stroke="black" d="M322.182,-193.5C322.182,-193.5 431.193,-193.5 431.193,-193.5 437.193,-193.5 443.193,-199.5 443.193,-205.5 443.193,-205.5 443.193,-309.5 443.193,-309.5 443.193,-315.5 437.193,-321.5 431.193,-321.5 431.193,-321.5 322.182,-321.5 322.182,-321.5 316.182,-321.5 310.182,-315.5 310.182,-309.5 310.182,-309.5 310.182,-205.5 310.182,-205.5 310.182,-199.5 316.182,-193.5 322.182,-193.5"/>
<text text-anchor="middle" x="376.688" y="-306.3" font-family="Times,serif" font-size="14.00">Parking</text>
<polyline fill="none" stroke="black" points="310.182,-299.5 443.193,-299.5 "/>
<text text-anchor="start" x="318.182" y="-284.3" font-family="Times,serif" font-size="14.00">id :integer</text>
<text text-anchor="start" x="318.182" y="-270.3" font-family="Times,serif" font-size="14.00">expires_at :datetime</text>
<text text-anchor="start" x="318.182" y="-256.3" font-family="Times,serif" font-size="14.00">status :string</text>
<text text-anchor="start" x="318.182" y="-242.3" font-family="Times,serif" font-size="14.00">zone_id :integer</text>
<text text-anchor="start" x="318.182" y="-228.3" font-family="Times,serif" font-size="14.00">car_id :integer</text>
<text text-anchor="start" x="318.182" y="-214.3" font-family="Times,serif" font-size="14.00">created_at :datetime</text>
<text text-anchor="start" x="318.182" y="-200.3" font-family="Times,serif" font-size="14.00">updated_at :datetime</text>
</g>
<!-- Car&#45;&gt;Parking -->
<g id="edge1" class="edge"><title>Car&#45;&gt;Parking</title>
<path fill="none" stroke="#b6d7da" d="M317.526,-371.952C324.316,-358.93 331.781,-344.615 339.053,-330.67"/>
<ellipse fill="none" stroke="#b6d7da" cx="315.648" cy="-375.552" rx="4.00002" ry="4.00002"/>
<polygon fill="#b6d7da" stroke="#b6d7da" points="339.171,-330.443 347.785,-323.657 341.483,-326.01 343.795,-321.577 343.795,-321.577 343.795,-321.577 341.483,-326.01 339.805,-319.496 339.171,-330.443 339.171,-330.443"/>
</g>
<!-- Parking&#45;&gt;Device -->
<g id="edge4" class="edge"><title>Parking&#45;&gt;Device</title>
<path fill="none" stroke="#1b35a5" d="M343.904,-185.736C338.763,-174.637 333.441,-163.15 328.281,-152.013"/>
<ellipse fill="none" stroke="#1b35a5" cx="345.634" cy="-189.469" rx="4.00002" ry="4.00002"/>
<polygon fill="#1b35a5" stroke="#1b35a5" points="328.196,-151.829 328.076,-140.864 326.094,-147.293 323.993,-142.756 323.993,-142.756 323.993,-142.756 326.094,-147.293 319.91,-144.647 328.196,-151.829 328.196,-151.829"/>
</g>
<!-- Payment -->
<g id="node5" class="node"><title>Payment</title>
<path fill="none" stroke="black" d="M410.182,-0.5C410.182,-0.5 519.193,-0.5 519.193,-0.5 525.193,-0.5 531.193,-6.5 531.193,-12.5 531.193,-12.5 531.193,-144.5 531.193,-144.5 531.193,-150.5 525.193,-156.5 519.193,-156.5 519.193,-156.5 410.182,-156.5 410.182,-156.5 404.182,-156.5 398.182,-150.5 398.182,-144.5 398.182,-144.5 398.182,-12.5 398.182,-12.5 398.182,-6.5 404.182,-0.5 410.182,-0.5"/>
<text text-anchor="middle" x="464.688" y="-141.3" font-family="Times,serif" font-size="14.00">Payment</text>
<polyline fill="none" stroke="black" points="398.182,-134.5 531.193,-134.5 "/>
<text text-anchor="start" x="406.182" y="-119.3" font-family="Times,serif" font-size="14.00">id :integer</text>
<text text-anchor="start" x="406.182" y="-105.3" font-family="Times,serif" font-size="14.00">type :string</text>
<text text-anchor="start" x="406.182" y="-91.3" font-family="Times,serif" font-size="14.00">data :string</text>
<text text-anchor="start" x="406.182" y="-77.3" font-family="Times,serif" font-size="14.00">parking_id :integer</text>
<text text-anchor="start" x="406.182" y="-63.3" font-family="Times,serif" font-size="14.00">status :string</text>
<text text-anchor="start" x="406.182" y="-49.3" font-family="Times,serif" font-size="14.00">price :float</text>
<text text-anchor="start" x="406.182" y="-35.3" font-family="Times,serif" font-size="14.00">units :integer</text>
<text text-anchor="start" x="406.182" y="-21.3" font-family="Times,serif" font-size="14.00">created_at :datetime</text>
<text text-anchor="start" x="406.182" y="-7.3" font-family="Times,serif" font-size="14.00">updated_at :datetime</text>
</g>
<!-- Parking&#45;&gt;Payment -->
<g id="edge3" class="edge"><title>Parking&#45;&gt;Payment</title>
<path fill="none" stroke="#2cd7ee" d="M411.822,-185.833C415.098,-179.243 418.443,-172.515 421.78,-165.804"/>
<ellipse fill="none" stroke="#2cd7ee" cx="409.99" cy="-189.517" rx="4.00002" ry="4.00002"/>
<polygon fill="#2cd7ee" stroke="#2cd7ee" points="421.865,-165.632 430.347,-158.681 424.091,-161.154 426.317,-156.677 426.317,-156.677 426.317,-156.677 424.091,-161.154 422.288,-154.674 421.865,-165.632 421.865,-165.632"/>
</g>
<!-- Zone -->
<g id="node6" class="node"><title>Zone</title>
<path fill="none" stroke="black" d="M398.182,-358.5C398.182,-358.5 507.193,-358.5 507.193,-358.5 513.193,-358.5 519.193,-364.5 519.193,-370.5 519.193,-370.5 519.193,-474.5 519.193,-474.5 519.193,-480.5 513.193,-486.5 507.193,-486.5 507.193,-486.5 398.182,-486.5 398.182,-486.5 392.182,-486.5 386.182,-480.5 386.182,-474.5 386.182,-474.5 386.182,-370.5 386.182,-370.5 386.182,-364.5 392.182,-358.5 398.182,-358.5"/>
<text text-anchor="middle" x="452.688" y="-471.3" font-family="Times,serif" font-size="14.00">Zone</text>
<polyline fill="none" stroke="black" points="386.182,-464.5 519.193,-464.5 "/>
<text text-anchor="start" x="394.182" y="-449.3" font-family="Times,serif" font-size="14.00">id :integer</text>
<text text-anchor="start" x="394.182" y="-435.3" font-family="Times,serif" font-size="14.00">name :string</text>
<text text-anchor="start" x="394.182" y="-421.3" font-family="Times,serif" font-size="14.00">number :integer</text>
<text text-anchor="start" x="394.182" y="-407.3" font-family="Times,serif" font-size="14.00">unit_price :float</text>
<text text-anchor="start" x="394.182" y="-393.3" font-family="Times,serif" font-size="14.00">unit_time :integer</text>
<text text-anchor="start" x="394.182" y="-379.3" font-family="Times,serif" font-size="14.00">created_at :datetime</text>
<text text-anchor="start" x="394.182" y="-365.3" font-family="Times,serif" font-size="14.00">updated_at :datetime</text>
</g>
<!-- Zone&#45;&gt;Parking -->
<g id="edge5" class="edge"><title>Zone&#45;&gt;Parking</title>
<path fill="none" stroke="#1c84ee" d="M419.839,-351.049C416.703,-344.321 413.518,-337.491 410.374,-330.747"/>
<ellipse fill="none" stroke="#1c84ee" cx="421.614" cy="-354.855" rx="4.00002" ry="4.00002"/>
<polygon fill="#1c84ee" stroke="#1c84ee" points="410.344,-330.684 410.197,-319.72 408.231,-326.153 406.118,-321.621 406.118,-321.621 406.118,-321.621 408.231,-326.153 402.04,-323.523 410.344,-330.684 410.344,-330.684"/>
</g>
<!-- Zone&#45;&gt;Payment -->
<g id="edge6" class="edge"><title>Zone&#45;&gt;Payment</title>
<path fill="none" stroke="#789e48" d="M455.19,-350.194C457.062,-296.825 459.633,-223.549 461.628,-166.693"/>
<ellipse fill="none" stroke="#789e48" cx="455.043" cy="-354.376" rx="4" ry="4"/>
<polygon fill="#789e48" stroke="#789e48" points="461.63,-166.631 466.478,-156.795 461.806,-161.634 461.981,-156.637 461.981,-156.637 461.981,-156.637 461.806,-161.634 457.484,-156.479 461.63,-166.631 461.63,-166.631"/>
</g>
</g>
</svg>
